HIERARCHY
ROOT root
{
	OFFSET	0	13.1	24.9
	CHANNELS 6  Xposition Yposition Zposition Xrotation Yrotation Zrotation
	JOINT spine_1
	{
		OFFSET	0	9.99999	0
		CHANNELS 3  Xrotation Yrotation Zrotation
		JOINT spine_2
		{
			OFFSET	0	112	-10
			CHANNELS 3  Xrotation Yrotation Zrotation
			JOINT spine_3
			{
				OFFSET	0	206.5	19.3
				CHANNELS 3  Xrotation Yrotation Zrotation
				JOINT spine_4
				{
					OFFSET	0	110.4	14.6
					CHANNELS 3  Xrotation Yrotation Zrotation
					JOINT neck_1
					{
						OFFSET	0	71.8	-50.3
						CHANNELS 3  Xrotation Yrotation Zrotation
						JOINT neck_2
						{
							OFFSET	0	86.2	-25.8
							CHANNELS 3  Xrotation Yrotation Zrotation
							JOINT head_ee
							{
								OFFSET	0	179.8	-8.7
								CHANNELS 3  Xrotation Yrotation Zrotation
								End Site
								{
									OFFSET	1	0	0
								}
							}
						}
					}
					JOINT left_clavicle
					{
						OFFSET	-43.2	22.4	-70.8
						CHANNELS 3  Xrotation Yrotation Zrotation
						JOINT left_shoulder
						{
							OFFSET	-93.9	-5.79999	48.7
							CHANNELS 3  Xrotation Yrotation Zrotation
							JOINT left_elbow
							{
								OFFSET	-291.4	-30.8	15.2
								CHANNELS 3  Xrotation Yrotation Zrotation
								JOINT left_lowarm_twist
								{
									OFFSET	-110.7	-3.89999	13.6
									CHANNELS 3  Xrotation Yrotation Zrotation
									JOINT left_hand
									{
										OFFSET	-110.7	-3.89999	13.6
										CHANNELS 3  Xrotation Yrotation Zrotation
										JOINT left_ee
										{
											OFFSET	-80.8	-5.10001	12.1
											CHANNELS 3  Xrotation Yrotation Zrotation
											End Site
											{
												OFFSET	1	0	0
											}
										}
									}
								}
							}
						}
					}
					JOINT right_clavicle
					{
						OFFSET	43.2	22.4	-70.8
						CHANNELS 3  Xrotation Yrotation Zrotation
						JOINT right_shoulder
						{
							OFFSET	93.9	-5.79999	48.7
							CHANNELS 3  Xrotation Yrotation Zrotation
							JOINT right_elbow
							{
								OFFSET	291.4	-30.8	15.2
								CHANNELS 3  Xrotation Yrotation Zrotation
								JOINT right_lowarm_twist
								{
									OFFSET	110.7	-3.89999	13.6
									CHANNELS 3  Xrotation Yrotation Zrotation
									JOINT right_hand
									{
										OFFSET	110.7	-3.89999	13.6
										CHANNELS 3  Xrotation Yrotation Zrotation
										JOINT right_ee
										{
											OFFSET	80.8	-5.10001	12.1
											CHANNELS 3  Xrotation Yrotation Zrotation
											End Site
											{
												OFFSET	1	0	0
											}
										}
									}
								}
							}
						}
					}
				}
			}
		}
	}
	JOINT left_hip
	{
		OFFSET	-82.8	-127.5	0.300001
		CHANNELS 3  Xrotation Yrotation Zrotation
		JOINT left_knee
		{
			OFFSET	-28.2	-396.7	2.2
			CHANNELS 3  Xrotation Yrotation Zrotation
			JOINT left_ankle
			{
				OFFSET	-11.7	-411.3	35.4
				CHANNELS 3  Xrotation Yrotation Zrotation
				JOINT left_toes
				{
					OFFSET	0	-60	-88.6
					CHANNELS 3  Xrotation Yrotation Zrotation
					JOINT left_foot_ee
					{
						OFFSET	-22.5	-16.5	-42.2
						CHANNELS 3  Xrotation Yrotation Zrotation
						End Site
						{
							OFFSET	1	0	0
						}
					}
				}
			}
		}
	}
	JOINT right_hip
	{
		OFFSET	82.8	-127.5	0.300001
		CHANNELS 3  Xrotation Yrotation Zrotation
		JOINT right_knee
		{
			OFFSET	28.2	-396.7	2.2
			CHANNELS 3  Xrotation Yrotation Zrotation
			JOINT right_ankle
			{
				OFFSET	11.7	-411.3	35.4
				CHANNELS 3  Xrotation Yrotation Zrotation
				JOINT right_toes
				{
					OFFSET	0	-60	-88.6
					CHANNELS 3  Xrotation Yrotation Zrotation
					JOINT right_foot_ee
					{
						OFFSET	22.5	-16.5	-42.2
						CHANNELS 3  Xrotation Yrotation Zrotation
						End Site
						{
							OFFSET	1	0	0
						}
					}
				}
			}
		}
	}
}
MOTION
Frames: 15
Frame Time: 0.02
1322.09 704.37 -1900.16 16.2704 72.5766 -2.79601 -0.0623429 -0.814606 -2.71941 -0.0584565 -0.63998 -2.76569 -0.0248417 -0.0434751 -2.83838 -0.0357476 -0.491021 -2.79596 -3.68489 -0.768337 1.38321 -3.67597 -2.46707 1.31001 -0.0 0.0 -0.0 8.74073 -6.02257 17.1561 3.87711 -23.5728 56.0939 1.11803 -28.9786 0.288929 -30.9848 -2.04733 3.34093 -0.00958523 3.54542 1.42328 -0.0 0.0 -0.0 4.12923 -0.412654 -7.98639 -1.50148 -30.7036 -64.7756 0.194832 5.5129 -0.00938043 26.5276 -0.16056 3.35476 3.45617 -10.0471 -27.4538 0.0 0.0 0.0 7.30617 8.72161 -16.7413 -17.0134 0.319238 2.58178 34.8623 -17.2915 -4.75654 -5.43797 0.0 0.0 -0.0 0.0 -0.0 13.9615 -8.43267 -12.6531 -26.212 -0.170417 -3.98394 30.5739 -10.5984 3.96137 -5.61463 0.0 0.0 0.0 0.0 0.0 
1316.18 702.824 -1903.29 9.79313 73.2335 4.05963 0.459133 -0.731947 -2.93555 0.463763 -0.543752 -2.97613 0.494264 0.0676205 -3.02459 0.481734 -0.410688 -2.99737 -4.14679 -0.715699 1.53773 -4.1368 -2.4837 1.46561 -0.0 0.0 -0.0 9.53205 -6.73988 18.8378 2.82811 -23.683 53.8389 1.27581 -32.2915 0.369363 -33.6308 -2.30066 3.56671 -0.507922 0.950686 -2.98396 -0.0 0.0 -0.0 3.6885 -1.54346 -7.19525 -3.50629 -30.8429 -65.8663 0.211515 5.98168 -0.0110511 27.1966 -0.144458 3.4387 3.25646 -10.5654 -26.1693 0.0 0.0 0.0 7.58098 9.5143 -17.5081 -13.6032 0.316991 2.05863 35.2323 -18.9157 -4.85328 -7.41843 0.0 0.0 -0.0 0.0 -0.0 16.6504 -6.26509 -13.3826 -29.0357 -0.0797902 -4.40777 30.4901 -11.6875 3.95904 -3.8896 0.0 0.0 0.0 0.0 0.0 
1305.99 701.71 -1909.96 7.84055 74.9687 5.82704 0.547229 -0.615141 -2.72445 0.55125 -0.440598 -2.75803 0.574232 0.120875 -2.79036 0.563511 -0.321155 -2.77447 -4.52275 -1.73231 1.83227 -4.50468 -4.56522 1.58898 -0.0 0.0 -0.0 9.62629 -7.36839 19.0404 2.39937 -24.355 53.1697 1.41167 -34.9631 0.444618 -34.1946 -2.35597 3.61331 -1.05713 0.0342604 -7.06211 -0.0 0.0 -0.0 3.68883 -4.96771 -7.36032 -7.43531 -24.7763 -67.2336 0.309304 8.7113 -0.0235589 28.6652 -0.105678 3.62228 3.09641 -11.6571 -25.3699 0.0 0.0 0.0 7.82692 9.65494 -17.8124 -13.1306 0.314223 1.98617 35.1045 -20.2899 -4.89466 -6.51081 0.0 0.0 -0.0 0.0 -0.0 16.5025 -7.84085 -12.8282 -31.3421 0.00967635 -4.75039 31.8335 -12.6386 4.1088 -4.92584 0.0 0.0 0.0 0.0 0.0 
1267.22 695.153 -1926.17 23.6605 77.9609 -9.61456 0.0692708 -0.975253 -2.66889 0.0728745 -0.803514 -2.72548 0.113749 -0.218871 -2.83294 0.103164 -0.663363 -2.76291 -4.15648 -2.40542 2.09468 -4.12829 -5.99953 1.76694 -0.0 0.0 -0.0 9.12167 -7.32887 17.959 4.62984 -24.7062 55.9886 1.32794 -33.3362 0.397611 -35.7866 -2.51462 3.74192 -1.19313 -1.76088 -8.77855 -0.0 0.0 -0.0 2.12807 -7.49992 -4.67701 -9.1054 -29.8214 -70.0013 0.319433 8.99199 -0.0251175 27.1968 -0.144453 3.43872 2.78786 -9.06713 -22.3386 0.0 0.0 0.0 2.08347 11.953 -18.4679 -11.0842 0.295346 1.67277 36.8481 -22.3383 -5.16071 -4.59555 0.0 0.0 -0.0 0.0 -0.0 25.9657 -5.90661 -11.6368 -30.683 -0.0172986 -4.65285 34.5932 -17.9656 4.46119 -4.12118 0.0 0.0 0.0 0.0 0.0 
1256.57 694.127 -1937.12 21.1038 80.1355 -7.17529 0.386315 -0.791829 -2.36947 0.389211 -0.639494 -2.41502 0.417893 -0.136119 -2.4945 0.409598 -0.528252 -2.44175 -4.7 -3.4964 1.48152 -4.67568 -7.53582 0.925448 -0.0 0.0 -0.0 8.59041 -10.2997 16.77 2.54302 -27.6357 54.7952 1.39744 -34.691 0.436492 -36.1172 -2.54801 3.76808 -1.26034 -1.54105 -9.13681 -0.0 0.0 -0.0 2.08503 -11.7019 -4.8938 -11.2653 -27.0632 -70.6245 0.352804 9.91358 -0.0305983 28.4791 -0.110851 3.59908 2.87538 -10.9312 -23.5739 0.0 0.0 0.0 2.76346 12.8942 -19.5669 -9.50076 0.273064 1.43083 37.6948 -24.7646 -5.36623 -3.98546 0.0 0.0 -0.0 0.0 -0.0 28.625 -4.06091 -11.7945 -25.0199 -0.202382 -3.80378 31.1152 -18.0848 4.0961 -4.37653 0.0 0.0 0.0 0.0 0.0 
1246.09 693.785 -1940.6 16.3767 80.6511 -2.35324 0.480711 -0.688582 -2.59024 0.484292 -0.522422 -2.62877 0.510043 0.0177142 -2.68009 0.500249 -0.405627 -2.64929 -5.03803 -3.44744 2.9718 -4.98855 -8.56874 2.43292 -0.0 0.0 -0.0 8.6063 -12.1221 16.7465 3.34758 -26.1117 55.6555 1.39746 -34.6915 0.436505 -36.1424 -2.55056 3.77006 -1.37365 -3.30291 -10.6963 -0.0 0.0 -0.0 2.56649 -10.4303 -5.63458 -13.5255 -26.3497 -70.1847 0.369722 10.3789 -0.0335788 30.6902 -0.0445089 3.87369 2.75661 -8.00974 -21.7551 0.0 0.0 0.0 3.06448 14.0849 -19.9052 -7.85482 0.242824 1.18008 37.5337 -25.2936 -5.37893 -1.42102 0.0 0.0 -0.0 0.0 -0.0 29.4339 -3.21156 -12.6362 -27.684 -0.125784 -4.20542 38.2498 -20.5364 4.87569 -4.54311 0.0 0.0 0.0 0.0 0.0 
1232.76 690.214 -1947.74 16.5115 81.8473 -3.01452 0.429344 -0.694378 -2.32678 0.432191 -0.544954 -2.36622 0.45625 -0.0549893 -2.42751 0.448294 -0.437568 -2.3884 -4.8462 -4.38555 3.04374 -4.78361 -10.3466 2.36272 -0.0 0.0 -0.0 8.37955 -12.6468 16.2348 4.55254 -26.1579 56.1888 1.37789 -34.3143 0.425418 -35.9347 -2.52956 3.75366 -1.46844 -4.14313 -11.7221 -0.0 0.0 -0.0 2.32646 -9.83622 -5.18442 -14.0836 -30.5006 -71.5779 0.310729 8.75081 -0.0237751 28.8902 -0.0993192 3.65033 2.75003 -7.52035 -21.5377 0.0 0.0 0.0 1.48756 15.6502 -19.4262 -4.21996 0.150601 0.62998 36.6137 -26.4078 -5.34818 -2.9068 0.0 0.0 -0.0 0.0 -0.0 27.9298 -3.10056 -12.0836 -25.3598 -0.193651 -3.85521 39.2273 -16.3895 4.88469 -5.82669 0.0 0.0 0.0 0.0 0.0 
1217.66 688.091 -1958.74 11.4186 82.682 2.87423 0.517271 -0.622678 -2.69649 0.521203 -0.449897 -2.73062 0.544431 0.107697 -2.76531 0.533912 -0.330215 -2.74765 -4.24998 -4.49887 4.18581 -4.14275 -11.4212 3.57932 -0.0 0.0 -0.0 8.93999 -15.6633 17.3186 1.74032 -26.6678 54.2417 1.43823 -35.4661 0.459933 -34.3622 -2.37251 3.62705 -1.56129 -4.19639 -12.3853 -0.0 0.0 -0.0 2.2191 -10.0769 -5.01455 -16.8796 -27.0898 -72.714 0.354646 9.96431 -0.0309163 30.4842 -0.051137 3.84822 2.90083 -4.93514 -21.6755 0.0 0.0 0.0 1.99619 16.6304 -21.3275 -3.45836 0.126863 0.515508 37.6361 -25.8113 -5.41793 -1.02981 0.0 0.0 -0.0 0.0 -0.0 28.1263 -4.30387 -12.6696 -22.748 -0.252887 -3.45883 33.8905 -12.4426 4.3191 -9.36998 0.0 0.0 0.0 0.0 0.0 
1206.92 688.597 -1963.37 6.59856 82.7055 7.98054 0.516934 -0.562263 -2.81076 0.521248 -0.382341 -2.84081 0.542048 0.196226 -2.85969 0.530729 -0.257682 -2.85481 -3.18828 -4.69086 4.30135 -3.05529 -11.8696 3.78817 -0.0 0.0 -0.0 9.34523 -16.8452 18.1483 1.32732 -26.4339 53.7212 1.36896 -34.1411 0.420395 -34.1624 -2.3528 3.61066 -2.17141 -4.96586 -16.9852 -0.0 0.0 -0.0 2.50363 -7.26353 -5.33133 -14.3515 -35.213 -71.7825 0.196191 5.55112 -0.00951143 28.0348 -0.122901 3.5436 2.89723 -3.90495 -21.2676 0.0 0.0 0.0 2.18393 17.4615 -22.102 -2.87621 0.107692 0.428223 37.5408 -25.6641 -5.40015 -1.03155 0.0 0.0 -0.0 0.0 -0.0 27.1398 -5.00286 -13.9189 -17.9318 -0.314522 -2.72261 34.5491 -17.3175 4.44604 -7.82878 0.0 0.0 0.0 0.0 0.0 
1194.26 686.706 -1966.14 7.84937 82.9829 6.81937 0.288774 -0.557042 -2.97844 0.293635 -0.366475 -3.00781 0.315209 0.25734 -3.01909 0.302559 -0.222475 -3.02186 -3.3438 -4.91937 4.45207 -3.2027 -12.4007 3.89445 -0.0 0.0 -0.0 9.63956 -15.5341 18.869 0.582082 -27.9182 53.5322 1.40943 -34.9205 0.443337 -35.6322 -2.49908 3.72964 -2.26836 -3.28044 -16.8859 -0.0 0.0 -0.0 2.53426 -6.96728 -5.36722 -13.9331 -33.2017 -71.8715 0.199483 5.64367 -0.00983258 29.8423 -0.0712016 3.76869 2.34778 -5.893 -18.1484 0.0 0.0 0.0 1.70004 19.627 -22.1864 -1.47917 0.0580724 0.219566 37.152 -23.359 -5.24006 -0.777515 0.0 0.0 -0.0 0.0 -0.0 26.468 -5.63822 -13.5919 -17.0512 -0.319089 -2.58757 33.9323 -16.7116 4.37361 -9.00031 0.0 0.0 0.0 0.0 0.0 
1178.11 679.906 -1970.14 22.9456 83.0512 -7.5763 0.0287902 -0.604422 -3.272 0.0346588 -0.395108 -3.30378 0.060676 0.304699 -3.31333 0.0454271 -0.222107 -3.31988 -5.4448 -5.24843 5.10522 -5.3161 -13.4682 4.2555 -0.0 0.0 -0.0 9.30793 -16.585 18.0804 1.31783 -27.8661 55.5302 1.37713 -34.2996 0.424992 -35.7825 -2.5142 3.74159 -2.29832 -3.37146 -17.1393 -0.0 0.0 -0.0 0.690088 -5.03335 -1.86214 -10.9235 -36.9532 -74.7371 0.20057 5.67424 -0.00993985 28.9235 -0.0983702 3.65447 2.64856 -2.34513 -18.9156 0.0 0.0 0.0 0.551882 23.469 -23.6478 -1.17297 0.0465174 0.173995 37.955 -21.7976 -5.24379 0.243959 -0.0 -0.0 -0.0 0.0 -0.0 24.8535 -7.17307 -12.6845 -2.62349 -0.0990939 -0.39039 18.329 -23.7324 2.62895 -13.7741 0.0 0.0 0.0 0.0 0.0 
1161.33 677.41 -1977.02 39.5681 83.9062 -24.2289 -0.466844 -0.655459 -3.30845 -0.460864 -0.443727 -3.3434 -0.430751 0.294232 -3.35984 -0.446421 -0.239775 -3.36416 -5.83906 -5.95339 5.56078 -5.69385 -15.0952 4.53973 -0.0 0.0 -0.0 9.80187 -16.901 19.1588 0.189488 -28.8829 54.5136 1.34974 -33.7658 0.409661 -35.9542 -2.53153 3.75521 -2.34766 -3.69106 -17.6369 -0.0 0.0 -0.0 0.695669 -5.36137 -1.90655 -8.31483 -38.4328 -74.2813 0.194783 5.51154 -0.00937582 29.6036 -0.0784372 3.73905 2.64628 1.34328 -17.4405 0.0 0.0 0.0 -1.19269 23.7228 -24.787 -1.58973 0.0621849 0.236035 38.008 -21.6598 -5.24254 0.805773 -0.0 -0.0 -0.0 0.0 -0.0 23.2997 -7.24604 -12.6179 -0.11199 -0.00459511 -0.0165716 16.843 -23.7388 2.42996 -14.7483 0.0 0.0 0.0 0.0 0.0 
1152.11 670.879 -1978.92 47.6479 83.5951 -33.1094 -1.09602 -0.529599 -3.1959 -1.09039 -0.325271 -3.22308 -1.06735 0.419583 -3.21218 -1.08174 -0.0927104 -3.23811 -4.44699 -6.62778 5.14604 -4.26687 -16.0431 4.20455 -0.0 0.0 -0.0 9.04655 -18.759 17.3673 1.32614 -29.5023 55.765 1.40048 -34.7493 0.438225 -36.2766 -2.56416 3.78062 -2.86536 -0.865342 -19.9511 -0.0 0.0 -0.0 0.140416 -4.58823 -0.8042 -7.51258 -37.2087 -76.1422 0.196768 5.56735 -0.00956735 29.4441 -0.0832024 3.71924 2.89054 1.19391 -19.2282 0.0 0.0 0.0 -1.71592 24.9547 -24.7002 -3.34375 0.123158 0.498309 38.2588 -22.3435 -5.29857 0.0306824 -0.0 -0.0 -0.0 0.0 -0.0 24.1794 -6.07767 -11.557 -1.03309 -0.0411574 -0.153196 10.2841 -14.0632 1.46891 -16.8356 0.0 0.0 0.0 0.0 0.0 
1140.23 667.288 -1984.71 56.584 84.6893 -43.6008 -1.1942 -0.410836 -2.61137 -1.19044 -0.243894 -2.6322 -1.176 0.368751 -2.61764 -1.18556 -0.0491347 -2.64301 -3.97755 -7.28742 4.62702 -3.79004 -16.8531 3.63453 -0.0 0.0 -0.0 7.89111 -20.0479 14.7254 0.846951 -31.358 56.5142 1.43181 -35.3451 0.456214 -36.5238 -2.58929 3.79998 -3.15303 0.489876 -21.3269 -0.0 0.0 -0.0 0.796004 -1.851 -1.72746 -7.38235 -42.6587 -76.422 0.19174 5.42594 -0.00908574 29.685 -0.0759842 3.74916 2.91628 1.41661 -19.3207 0.0 0.0 0.0 -1.78249 24.718 -23.6328 -3.9686 0.142934 0.592165 38.5535 -20.7957 -5.25542 1.961 -0.0 -0.0 -0.0 0.0 -0.0 24.4283 -6.62351 -9.5442 -1.94206 -0.0750776 -0.28857 10.3724 -11.2036 1.47493 -17.4935 0.0 0.0 0.0 0.0 0.0 
1121.44 667.125 -1996.62 91.4377 86.6214 -78.6355 -1.09126 -0.414518 -2.75651 -1.08707 -0.238344 -2.77728 -1.07206 0.402592 -2.75827 -1.08267 -0.0379028 -2.78722 -2.69334 -8.07679 5.22364 -2.40218 -18.7267 4.3604 -0.0 0.0 -0.0 8.44174 -21.1023 15.8543 0.106965 -30.0693 57.1893 1.42544 -35.2248 0.452537 -39.5893 -2.90759 4.031 -3.30049 -0.892852 -23.1023 -0.0 0.0 -0.0 0.966683 -1.44712 -2.00963 -7.55896 -41.1541 -76.2914 0.18527 5.24389 -0.00848413 32.2219 0.00764714 4.06236 2.78222 4.22536 -17.205 0.0 0.0 0.0 -0.0901341 24.1891 -24.6507 -4.72656 0.165546 0.70629 38.5903 -19.36 -5.19778 2.24553 -0.0 -0.0 -0.0 0.0 -0.0 21.267 -6.61874 -10.2436 3.81816 0.175958 0.559304 10.2342 -14.8663 1.4644 -19.3805 0.0 0.0 0.0 0.0 0.0 
